<svg xmlns="http://www.w3.org/2000/svg" width="19" height="18" viewBox="0 0 19 18" fill="none">
  <path d="M16.4791 3.375H2.97913C2.82994 3.375 2.68687 3.43426 2.58138 3.53975C2.47589 3.64524 2.41663 3.78832 2.41663 3.9375V13.5C2.41663 13.7984 2.53515 14.0845 2.74613 14.2955C2.95711 14.5065 3.24326 14.625 3.54163 14.625H15.9166C16.215 14.625 16.5011 14.5065 16.7121 14.2955C16.9231 14.0845 17.0416 13.7984 17.0416 13.5V3.9375C17.0416 3.78832 16.9824 3.64524 16.8769 3.53975C16.7714 3.43426 16.6283 3.375 16.4791 3.375ZM15.0328 4.5L9.72913 9.36211L4.42545 4.5H15.0328ZM15.9166 13.5H3.54163V5.21648L9.34873 10.5398C9.45251 10.6351 9.58825 10.688 9.72913 10.688C9.87 10.688 10.0057 10.6351 10.1095 10.5398L15.9166 5.21648V13.5Z" fill="white"/>
</svg>