<svg xmlns="http://www.w3.org/2000/svg" width="14" height="14" viewBox="0 0 14 14" fill="none">
  <path d="M4.50693 1.99994C2.97305 1.99994 1.72916 3.24383 1.72916 4.77772V9.22216C1.72916 10.7561 2.97305 11.9999 4.50693 11.9999H8.95138C10.4853 11.9999 11.7292 10.7561 11.7292 9.22216V4.77772C11.7292 3.24383 10.4853 1.99994 8.95138 1.99994H4.50693ZM10.0625 3.11105C10.3692 3.11105 10.618 3.35994 10.618 3.66661C10.618 3.97327 10.3692 4.22216 10.0625 4.22216C9.75582 4.22216 9.50693 3.97327 9.50693 3.66661C9.50693 3.35994 9.75582 3.11105 10.0625 3.11105ZM6.72916 4.22216C8.26305 4.22216 9.50693 5.46605 9.50693 6.99994C9.50693 8.53383 8.26305 9.77772 6.72916 9.77772C5.19527 9.77772 3.95138 8.53383 3.95138 6.99994C3.95138 5.46605 5.19527 4.22216 6.72916 4.22216ZM6.72916 5.33327C6.28713 5.33327 5.86321 5.50887 5.55065 5.82143C5.23808 6.13399 5.06249 6.55791 5.06249 6.99994C5.06249 7.44197 5.23808 7.86589 5.55065 8.17845C5.86321 8.49101 6.28713 8.66661 6.72916 8.66661C7.17118 8.66661 7.59511 8.49101 7.90767 8.17845C8.22023 7.86589 8.39582 7.44197 8.39582 6.99994C8.39582 6.55791 8.22023 6.13399 7.90767 5.82143C7.59511 5.50887 7.17118 5.33327 6.72916 5.33327Z" fill="#00387A"/>
</svg>