<svg xmlns="http://www.w3.org/2000/svg" width="17" height="16" viewBox="0 0 19 18" fill="none">
  <path d="M9.72913 4.5C9.17287 4.5 8.6291 4.66495 8.16658 4.97399C7.70407 5.28303 7.34359 5.72229 7.13071 6.2362C6.91784 6.75012 6.86215 7.31562 6.97067 7.86119C7.07919 8.40676 7.34705 8.9079 7.74039 9.30124C8.13372 9.69457 8.63486 9.96244 9.18043 10.071C9.72601 10.1795 10.2915 10.1238 10.8054 9.91091C11.3193 9.69804 11.7586 9.33755 12.0676 8.87504C12.3767 8.41253 12.5416 7.86876 12.5416 7.3125C12.5416 6.56658 12.2453 5.85121 11.7179 5.32376C11.1904 4.79632 10.475 4.5 9.72913 4.5ZM9.72913 9C9.39537 9 9.06911 8.90103 8.7916 8.71561C8.51409 8.53018 8.2978 8.26663 8.17008 7.95828C8.04236 7.64993 8.00894 7.31063 8.07405 6.98329C8.13916 6.65594 8.29988 6.35526 8.53588 6.11926C8.77188 5.88326 9.07257 5.72254 9.39991 5.65743C9.72725 5.59231 10.0666 5.62573 10.3749 5.75345C10.6833 5.88118 10.9468 6.09747 11.1322 6.37498C11.3177 6.65248 11.4166 6.97874 11.4166 7.3125C11.4166 7.76005 11.2388 8.18928 10.9224 8.50574C10.6059 8.82221 10.1767 9 9.72913 9ZM9.72913 1.125C8.08867 1.12686 6.51594 1.77935 5.35596 2.93933C4.19598 4.09931 3.54349 5.67204 3.54163 7.3125C3.54163 9.52031 4.56186 11.8603 6.49475 14.0801C7.36327 15.0831 8.34077 15.9864 9.4092 16.773C9.50378 16.8393 9.61646 16.8748 9.73194 16.8748C9.84741 16.8748 9.96009 16.8393 10.0547 16.773C11.1211 15.986 12.0967 15.0828 12.9635 14.0801C14.8936 11.8603 15.9166 9.52031 15.9166 7.3125C15.9148 5.67204 15.2623 4.09931 14.1023 2.93933C12.9423 1.77935 11.3696 1.12686 9.72913 1.125ZM9.72913 15.6094C8.56686 14.6953 4.66663 11.3379 4.66663 7.3125C4.66663 5.96984 5.19999 4.68218 6.1494 3.73277C7.0988 2.78337 8.38647 2.25 9.72913 2.25C11.0718 2.25 12.3595 2.78337 13.3089 3.73277C14.2583 4.68218 14.7916 5.96984 14.7916 7.3125C14.7916 11.3365 10.8914 14.6953 9.72913 15.6094Z" fill="white"/>
</svg>