<svg xmlns="http://www.w3.org/2000/svg" width="14" height="14" viewBox="0 0 14 14" fill="none">
  <path d="M12.0525 3.76993C11.9247 3.29215 11.5481 2.91548 11.0703 2.7877C10.2036 2.55548 6.72917 2.55548 6.72917 2.55548C6.72917 2.55548 3.25473 2.55548 2.38806 2.7877C1.91028 2.91548 1.53361 3.29215 1.40584 3.76993C1.17361 4.63659 1.17361 6.99993 1.17361 6.99993C1.17361 6.99993 1.17361 9.36326 1.40584 10.2299C1.53361 10.7077 1.91028 11.0844 2.38806 11.2121C3.25473 11.4444 6.72917 11.4444 6.72917 11.4444C6.72917 11.4444 10.2036 11.4444 11.0703 11.2121C11.5486 11.0844 11.9247 10.7077 12.0525 10.2299C12.2847 9.36326 12.2847 6.99993 12.2847 6.99993C12.2847 6.99993 12.2847 4.63659 12.0525 3.76993ZM5.61806 8.92437V5.07548L8.95139 6.99993L5.61806 8.92437Z" fill="#00387A"/>
</svg>